<?xml version="1.0" encoding="utf-8"?>
<!-- Generator: Adobe Illustrator 22.1.0, SVG Export Plug-In . SVG Version: 6.00 Build 0)  -->
<svg version="1.1" id="Layer_2_1_" xmlns="http://www.w3.org/2000/svg" xmlns:xlink="http://www.w3.org/1999/xlink" x="0px" y="0px"
	 viewBox="0 0 1024 512" style="enable-background:new 0 0 1024 512;" xml:space="preserve">
<style type="text/css">
	.st0{fill:none;stroke:#000000;stroke-width:36;stroke-miterlimit:10;}
	.st1{fill:#FFFFFF;}
	.st2{fill:none;stroke:#000000;stroke-width:20;stroke-miterlimit:10;}
</style>
<path class="st0" d="M50.3,261.7C51,265,95.3,399,257.7,398.3c153.3-0.7,202-126.7,202-126.7"/>
<g id="Layer_2_2_">
	<path class="st0" d="M562.3,261.7C563,265,607.3,399,769.7,398.3c153.3-0.7,202-126.7,202-126.7"/>
</g>
<g id="Layer_3">
	<path d="M992.8,271.9c0,0-53.7,139-222.9,139.8c-179.2,0.8-228-147.1-228.8-150.8c0,0,72.9-126.3,221.4-133.4
		C917.8,120.1,992.8,271.9,992.8,271.9z"/>
	<circle class="st1" cx="766.7" cy="273.4" r="111.3"/>
	<circle cx="766.7" cy="273.4" r="44.3"/>
	<path class="st2" d="M981.8,188.7c0,0-45.5-70.2-137.7-93.4"/>
</g>
</svg>
